<?xml version="1.0" encoding="utf-8"?>
<!-- Generator: Adobe Illustrator 19.0.0, SVG Export Plug-In . SVG Version: 6.00 Build 0)  -->
<svg version="1.0" id="Layer_1" xmlns="http://www.w3.org/2000/svg" xmlns:xlink="http://www.w3.org/1999/xlink" x="0px" y="0px"
	 viewBox="0 0 517.9 69" style="enable-background:new 0 0 517.9 69;" xml:space="preserve">
<style type="text/css">
	.st0{fill:#9F2B57;}
</style>
<g id="XMLID_112_">
	<path id="XMLID_141_" class="st0" d="M30.2,1.6L45,63.5H32.1l-1.9-10.3H18l-2.5,10.3H3.1L17.3,1.6H30.2z M28.3,44.1l-5.2-27.1
		l-3.8,27.1H28.3z"/>
	<path id="XMLID_137_" class="st0" d="M67.1,1.6c1,0.1,2.1,0.3,3.4,0.7c1.3,0.4,2.6,1.1,4,2.1C75.4,5,76.2,5.7,77,6.5
		s1.6,1.8,2.4,2.9c0.8,1.1,1.5,2.6,2.1,4.5c0.7,1.9,1,4,1,6.1c0,0.2,0,0.4,0,0.6s0,0.4,0,0.5c-0.2,2.2-0.8,4.3-1.8,6.3
		c-1,2-2.8,3.7-5.2,5.1c2.9,1.3,5,3.2,6.4,5.7c1.4,2.5,2,5.2,2,8c0,0.2,0,0.3,0,0.4c0,0.1,0,0.3,0,0.5c-0.2,4.1-1.8,7.8-4.7,11.2
		c-2.9,3.4-6.9,5-12.1,5H51V1.6H67.1z M63.3,12.6V28c0.2,0.1,0.4,0.2,0.6,0.2c0.2,0,0.4,0,0.7,0c0.3,0,0.7,0,1-0.1
		c0.4-0.1,0.7-0.1,1-0.2c1.1-0.4,2.1-1.2,3-2.3c0.9-1.2,1.4-2.9,1.4-5.3c0-3.5-0.6-5.7-1.9-6.5C67.8,13,65.9,12.6,63.3,12.6
		L63.3,12.6z M63.3,37v16.8c0.2,0.1,0.4,0.2,0.6,0.2c0.2,0,0.4,0,0.6,0c2.2,0,4-0.8,5.2-2.3c1.3-1.5,1.9-3.6,1.9-6.2
		c0-2.1-0.7-4.1-2-5.9c-1.3-1.8-3.1-2.7-5.4-2.7c-0.2,0-0.3,0-0.5,0C63.6,37,63.5,37,63.3,37L63.3,37z"/>
	<path id="XMLID_134_" class="st0" d="M106.6,1.6c5.5,0.1,10.1,1.7,13.8,5s5.5,7.7,5.5,13.2c0,1.3-0.2,3.1-0.7,5.4
		c-0.4,2.3-2,4.7-4.6,7.1c-0.5,0.5-1.1,1-1.7,1.5c-0.6,0.5-1.3,1-2.1,1.5l11,28.2H115l-11-29v29H91.1V1.6H106.6z M103.4,11.9v16.8
		c0.1,0.1,0.2,0.1,0.3,0.1c0.1,0,0.2,0,0.3,0c0.1,0,0.2,0,0.3,0s0.2,0,0.3,0c2.6,0,4.6-0.4,5.8-1.3c1.3-0.9,2.2-1.8,2.7-2.9
		c0.3-0.7,0.5-1.3,0.6-1.9c0.1-0.6,0.2-1.1,0.2-1.5c0-0.1,0-0.2,0-0.3c0-0.1,0-0.2,0-0.2c-0.1-0.1-0.1-0.2-0.1-0.2
		c0-0.1,0-0.1,0-0.2s0-0.1,0-0.2s0-0.1,0-0.2s0-0.2,0-0.2c0.1-2.3-0.5-4.1-1.6-5.2c-1.1-1.1-2.3-1.8-3.6-2.1
		c-0.5-0.2-1.1-0.3-1.6-0.3c-0.5-0.1-1-0.1-1.5-0.1c-0.3,0-0.6,0-0.9,0c-0.2,0-0.4,0-0.6,0S103.6,11.9,103.4,11.9L103.4,11.9z"/>
	<path id="XMLID_131_" class="st0" d="M153.9,1.6c0.2,0.1,0.3,0.1,0.5,0.1c0.2,0,0.4,0,0.6,0c0.3,0,0.7,0,1,0c0.4,0,0.7,0.1,1.1,0.1
		c4.6,0.6,8.9,3.4,12.8,8.6c3.9,5.1,5.9,13.2,5.9,24.2c0,1.6-0.1,3.6-0.4,6.1c-0.2,2.5-0.8,5-1.6,7.7c-1.1,3.9-3.1,7.4-5.9,10.7
		c-2.8,3.2-6.8,5.2-12.2,5.8c-0.1,0-0.1,0-0.2,0s-0.2,0-0.3,0.1c-0.1,0-0.1,0-0.2,0c-0.1,0-0.2,0-0.3,0c-1.1,0-2.4-0.2-3.7-0.4
		c-1.3-0.3-2.6-0.8-3.9-1.3c-3.2-1.6-6.2-4.4-9-8.6c-2.8-4.1-4.4-10.1-4.7-18c0-0.4,0-0.7,0-1.1s0-0.7-0.1-1.1
		c0-8.8,1.7-16.4,5.2-22.7S147.1,2,153.9,1.6L153.9,1.6z M154.5,12.6c-2.5,0.3-4.3,1.5-5.4,3.8c-1.2,2.3-2,4.8-2.3,7.5
		c-0.3,1.8-0.4,3.6-0.5,5.3c-0.1,1.7-0.1,3.1-0.1,4.1c-0.1,0.3-0.1,0.6-0.1,0.9s0,0.7,0,1c0,1,0.1,2.2,0.2,3.4
		c0.1,1.3,0.3,2.6,0.6,3.9c0.6,2.8,1.5,5.4,2.8,7.8c1.3,2.3,2.9,3.5,5,3.6c0.1,0,0.2,0,0.3,0s0.1,0,0.2,0c2.6-0.3,4.6-2.2,6.1-5.5
		s2.3-8.4,2.3-15.1c0-0.8,0-1.7,0-2.5c0-0.9-0.1-1.7-0.1-2.6c-0.3-3.9-1-7.4-2.3-10.6C159.8,14.2,157.6,12.6,154.5,12.6L154.5,12.6z
		"/>
	<path id="XMLID_128_" class="st0" d="M202.4,1.6c0.2,0.1,0.3,0.1,0.5,0.1c0.2,0,0.4,0,0.6,0c0.3,0,0.7,0,1,0c0.4,0,0.7,0.1,1.1,0.1
		c4.6,0.6,8.9,3.4,12.8,8.6c3.9,5.1,5.9,13.2,5.9,24.2c0,1.6-0.1,3.6-0.4,6.1c-0.2,2.5-0.8,5-1.6,7.7c-1.1,3.9-3.1,7.4-5.9,10.7
		c-2.8,3.2-6.8,5.2-12.2,5.8c-0.1,0-0.1,0-0.2,0s-0.2,0-0.3,0.1c-0.1,0-0.1,0-0.2,0c-0.1,0-0.2,0-0.3,0c-1.1,0-2.4-0.2-3.7-0.4
		c-1.3-0.3-2.6-0.8-3.9-1.3c-3.2-1.6-6.2-4.4-9-8.6c-2.8-4.1-4.4-10.1-4.7-18c0-0.4,0-0.7,0-1.1s0-0.7-0.1-1.1
		c0-8.8,1.7-16.4,5.2-22.7S195.6,2,202.4,1.6L202.4,1.6z M203,12.6c-2.5,0.3-4.3,1.5-5.4,3.8c-1.2,2.3-2,4.8-2.3,7.5
		c-0.3,1.8-0.4,3.6-0.5,5.3c-0.1,1.7-0.1,3.1-0.1,4.1c-0.1,0.3-0.1,0.6-0.1,0.9s0,0.7,0,1c0,1,0.1,2.2,0.2,3.4
		c0.1,1.3,0.3,2.6,0.6,3.9c0.6,2.8,1.5,5.4,2.8,7.8c1.3,2.3,2.9,3.5,5,3.6c0.1,0,0.2,0,0.3,0s0.1,0,0.2,0c2.6-0.3,4.6-2.2,6.1-5.5
		s2.3-8.4,2.3-15.1c0-0.8,0-1.7,0-2.5c0-0.9-0.1-1.7-0.1-2.6c-0.3-3.9-1-7.4-2.3-10.6C208.4,14.2,206.1,12.6,203,12.6L203,12.6z"/>
	<path id="XMLID_126_" class="st0" d="M244.5,1.6V30l10.3-28.4h12.8l-11.5,29.6l12.8,32.2h-12.8l-11.6-30.3v30.3h-12.3V1.6H244.5z"
		/>
	<path id="XMLID_123_" class="st0" d="M298.2,1.6L313,63.5H300l-1.9-10.3h-12.3l-2.5,10.3h-12.3l14.2-61.9H298.2z M296.2,44.1
		L291,17.1l-3.8,27.1H296.2z"/>
	<path id="XMLID_121_" class="st0" d="M337.7,1.6l5.7,38.1l5.2-38.1h16.1l7.1,61.9h-12.9l-3.2-43.2l-7.1,43.2h-9.7l-7.7-43.2
		l-2.6,43.2h-12.8l5.8-61.9H337.7z"/>
	<path id="XMLID_118_" class="st0" d="M397.7,1.6c0.2,0.1,0.3,0.1,0.5,0.1c0.2,0,0.4,0,0.6,0c0.3,0,0.7,0,1,0c0.4,0,0.7,0.1,1.1,0.1
		c4.6,0.6,8.9,3.4,12.8,8.6c3.9,5.1,5.8,13.2,5.8,24.2c0,1.6-0.1,3.6-0.4,6.1s-0.8,5-1.6,7.7c-1.1,3.9-3.1,7.4-5.9,10.7
		c-2.8,3.2-6.8,5.2-12.2,5.8c-0.1,0-0.1,0-0.2,0s-0.2,0-0.3,0.1c-0.1,0-0.1,0-0.2,0s-0.2,0-0.3,0c-1.1,0-2.4-0.2-3.7-0.4
		c-1.3-0.3-2.6-0.8-3.9-1.3c-3.2-1.6-6.2-4.4-9-8.6c-2.8-4.1-4.4-10.1-4.7-18c0-0.4,0-0.7,0-1.1s0-0.7-0.1-1.1
		c0-8.8,1.7-16.4,5.2-22.7S390.9,2,397.7,1.6L397.7,1.6z M398.3,12.6c-2.5,0.3-4.3,1.5-5.4,3.8s-2,4.8-2.3,7.5
		c-0.3,1.8-0.4,3.6-0.5,5.3c-0.1,1.7-0.1,3.1-0.1,4.1c-0.1,0.3-0.1,0.6-0.1,0.9s0,0.7,0,1c0,1,0.1,2.2,0.2,3.4
		c0.1,1.3,0.3,2.6,0.6,3.9c0.6,2.8,1.5,5.4,2.8,7.8c1.3,2.3,2.9,3.5,5,3.6c0.1,0,0.2,0,0.3,0s0.2,0,0.2,0c2.6-0.3,4.6-2.2,6.1-5.5
		s2.3-8.4,2.3-15.1c0-0.8,0-1.7,0-2.5c0-0.9-0.1-1.7-0.1-2.6c-0.3-3.9-1-7.4-2.3-10.6S401.5,12.6,398.3,12.6L398.3,12.6z"/>
	<path id="XMLID_115_" class="st0" d="M446.3,1.6c0.2,0.1,0.3,0.1,0.5,0.1c0.2,0,0.4,0,0.6,0c0.3,0,0.7,0,1,0c0.4,0,0.7,0.1,1.1,0.1
		c4.6,0.6,8.9,3.4,12.8,8.6c3.9,5.1,5.8,13.2,5.8,24.2c0,1.6-0.1,3.6-0.4,6.1s-0.8,5-1.6,7.7c-1.1,3.9-3.1,7.4-5.9,10.7
		c-2.8,3.2-6.8,5.2-12.2,5.8c-0.1,0-0.1,0-0.2,0s-0.2,0-0.3,0.1c-0.1,0-0.1,0-0.2,0s-0.2,0-0.3,0c-1.1,0-2.4-0.2-3.7-0.4
		c-1.3-0.3-2.6-0.8-3.9-1.3c-3.2-1.6-6.2-4.4-9-8.6c-2.8-4.1-4.4-10.1-4.7-18c0-0.4,0-0.7,0-1.1s0-0.7-0.1-1.1
		c0-8.8,1.7-16.4,5.2-22.7S439.5,2,446.3,1.6L446.3,1.6z M446.9,12.6c-2.5,0.3-4.3,1.5-5.4,3.8s-2,4.8-2.3,7.5
		c-0.3,1.8-0.4,3.6-0.5,5.3c-0.1,1.7-0.1,3.1-0.1,4.1c-0.1,0.3-0.1,0.6-0.1,0.9s0,0.7,0,1c0,1,0.1,2.2,0.2,3.4
		c0.1,1.3,0.3,2.6,0.6,3.9c0.6,2.8,1.5,5.4,2.8,7.8c1.3,2.3,2.9,3.5,5,3.6c0.1,0,0.2,0,0.3,0s0.2,0,0.2,0c2.6-0.3,4.6-2.2,6.1-5.5
		s2.3-8.4,2.3-15.1c0-0.8,0-1.7,0-2.5c0-0.9-0.1-1.7-0.1-2.6c-0.3-3.9-1-7.4-2.3-10.6S450,12.6,446.9,12.6L446.9,12.6z"/>
	<path id="XMLID_113_" class="st0" d="M487.7,1.6l14.2,38.1V1.6h11.6v61.9h-11l-14.8-36.7v36.7h-12.3V1.6H487.7z"/>
</g>
</svg>
