<?xml version="1.0" encoding="utf-8"?>
<!DOCTYPE svg PUBLIC "-//W3C//DTD SVG 1.1//EN" "http://www.w3.org/Graphics/SVG/1.1/DTD/svg11.dtd">
<svg version="1.1" id="Layer_1" xmlns="http://www.w3.org/2000/svg" xmlns:xlink="http://www.w3.org/1999/xlink" x="0px" y="0px"
	 width="90.215px" height="90.311px" viewBox="0 0 90.215 90.311" enable-background="new 0 0 90.215 90.311" xml:space="preserve">
<rect x="10.5" y="12.127" fill="none" stroke="#af1857" stroke-miterlimit="10" width="8" height="8"/>
<rect x="21.5" y="12.127" fill="none" stroke="#af1857" stroke-miterlimit="10" width="8" height="8"/>
<rect x="10.5" y="23.127" fill="none" stroke="#af1857" stroke-miterlimit="10" width="8" height="8"/>
<rect x="21.5" y="23.127" fill="none" stroke="#af1857" stroke-miterlimit="10" width="8" height="8"/>
<rect x="10.5" y="57.127" fill="#af1857" stroke="#af1857" stroke-miterlimit="10" width="8" height="8"/>
<rect x="21.5" y="57.127" fill="#af1857" stroke="#af1857" stroke-miterlimit="10" width="8" height="8"/>
<rect x="10.5" y="68.127" fill="#af1857" stroke="#af1857" stroke-miterlimit="10" width="8" height="8"/>
<rect x="21.5" y="68.127" fill="#af1857" stroke="#af1857" stroke-miterlimit="10" width="8" height="8"/>
<rect x="63.5" y="12.127" fill="none" stroke="#999999" stroke-miterlimit="10" width="8" height="8"/>
<rect x="74.5" y="12.127" fill="none" stroke="#999999" stroke-miterlimit="10" width="8" height="8"/>
<rect x="63.5" y="23.127" fill="none" stroke="#999999" stroke-miterlimit="10" width="8" height="8"/>
<rect x="74.5" y="23.127" fill="none" stroke="#999999" stroke-miterlimit="10" width="8" height="8"/>
<rect x="63.5" y="57.127" fill="#999999" stroke="#999999" stroke-miterlimit="10" width="8" height="8"/>
<rect x="74.5" y="57.127" fill="#999999" stroke="#999999" stroke-miterlimit="10" width="8" height="8"/>
<rect x="63.5" y="68.127" fill="#999999" stroke="#999999" stroke-miterlimit="10" width="8" height="8"/>
<rect x="74.5" y="68.127" fill="#999999" stroke="#999999" stroke-miterlimit="10" width="8" height="8"/>
</svg>
