<?xml version="1.0" encoding="utf-8"?>
<!DOCTYPE svg PUBLIC "-//W3C//DTD SVG 1.1//EN" "http://www.w3.org/Graphics/SVG/1.1/DTD/svg11.dtd">
<svg version="1.1" id="Layer_1" xmlns="http://www.w3.org/2000/svg" xmlns:xlink="http://www.w3.org/1999/xlink" x="0px" y="0px"
	 width="44px" height="44px" viewBox="0 0 44 44" enable-background="new 0 0 44 44" xml:space="preserve">
<circle fill="#DA4941" cx="21.5" cy="21.5" r="20.5"/>
<g>
	<g>
		<path fill="#FFFFFF" d="M31.571,18.547v2.685h2.582v0.686h-2.582v2.708H30.84v-2.708h-2.582v-0.686h2.582v-2.685H31.571z"/>
		<polygon fill="#FFFFFF" points="32.071,25.126 30.34,25.126 30.34,22.418 27.758,22.418 27.758,20.732 30.34,20.732 30.34,18.047
			32.071,18.047 32.071,20.732 34.653,20.732 34.653,22.418 32.071,22.418 		"/>
	</g>
</g>
<path fill="#FFFFFF" d="M25.104,20H19v3h3.768c-0.434,2-2.205,2.525-3.69,2.525c-2.368,0-4.223-1.902-4.223-4.294
	c0-2.409,1.857-4.311,4.228-4.311c1.771,0,2.849,1.116,2.858,1.126l0.359,0.385l1.945-2.014l-0.312-0.348
	c-0.071-0.08-1.793-1.958-4.914-1.958c-3.863,0-7.127,3.232-7.127,7.059c0,3.411,2.761,7.092,7.222,7.092
	c3.885,0,6.598-2.713,6.598-6.527C25.712,20.049,25.402,20,25.104,20z"/>
</svg>
