<?xml version="1.0" encoding="utf-8"?>
<!DOCTYPE svg PUBLIC "-//W3C//DTD SVG 1.1//EN" "http://www.w3.org/Graphics/SVG/1.1/DTD/svg11.dtd">
<svg version="1.1" id="Layer_1" xmlns="http://www.w3.org/2000/svg" xmlns:xlink="http://www.w3.org/1999/xlink" x="0px" y="0px"
	 width="44px" height="44px" viewBox="0 0 44 44" enable-background="new 0 0 44 44" xml:space="preserve">
<g>
	<circle fill="#45ABEE" cx="22.5" cy="21.5" r="20.5"/>
	<g>
		<path fill="#FFFFFF" d="M30.68,16.772c-0.454,0.664-1.002,1.229-1.645,1.695c0.006,0.095,0.01,0.237,0.01,0.426
			c0,0.879-0.129,1.758-0.386,2.634c-0.257,0.877-0.648,1.718-1.173,2.522c-0.524,0.807-1.148,1.518-1.873,2.137
			c-0.725,0.62-1.598,1.114-2.619,1.482c-1.021,0.369-2.115,0.554-3.279,0.554c-1.834,0-3.512-0.491-5.035-1.472
			c0.237,0.027,0.501,0.041,0.792,0.041c1.522,0,2.88-0.468,4.071-1.402c-0.711-0.013-1.348-0.23-1.908-0.654
			c-0.562-0.423-0.948-0.963-1.158-1.619c0.224,0.034,0.43,0.051,0.619,0.051c0.291,0,0.579-0.037,0.863-0.111
			c-0.758-0.156-1.386-0.533-1.883-1.133c-0.498-0.598-0.746-1.293-0.746-2.086v-0.04c0.46,0.257,0.954,0.396,1.482,0.416
			c-0.447-0.298-0.803-0.687-1.066-1.167c-0.264-0.481-0.396-1.002-0.396-1.564c0-0.595,0.149-1.147,0.447-1.655
			c0.818,1.009,1.815,1.816,2.99,2.421c1.174,0.606,2.431,0.942,3.771,1.01c-0.054-0.258-0.081-0.508-0.081-0.751
			c0-0.907,0.32-1.68,0.959-2.319c0.641-0.64,1.413-0.959,2.32-0.959c0.947,0,1.746,0.345,2.396,1.035
			c0.737-0.142,1.432-0.406,2.081-0.792c-0.25,0.778-0.73,1.38-1.441,1.807C29.42,17.212,30.05,17.043,30.68,16.772z"/>
	</g>
</g>
</svg>
