<?xml version="1.0" encoding="utf-8"?>
<!DOCTYPE svg PUBLIC "-//W3C//DTD SVG 1.1//EN" "http://www.w3.org/Graphics/SVG/1.1/DTD/svg11.dtd">
<svg version="1.1" id="Layer_1" xmlns="http://www.w3.org/2000/svg" xmlns:xlink="http://www.w3.org/1999/xlink" x="0px" y="0px"
	 width="44px" height="44px" viewBox="0 0 44 44" enable-background="new 0 0 44 44" xml:space="preserve">
<circle fill="#169C2A" cx="22" cy="22" r="20.5"/>
<g>
	<path fill="#FFFFFF" d="M28.189,24.814c0,0.149-0.027,0.345-0.082,0.585c-0.057,0.24-0.115,0.43-0.176,0.568
		c-0.115,0.276-0.453,0.569-1.012,0.88c-0.52,0.282-1.035,0.423-1.543,0.423c-0.15,0-0.295-0.01-0.436-0.029
		s-0.301-0.054-0.479-0.104c-0.176-0.05-0.307-0.09-0.393-0.12s-0.24-0.087-0.461-0.17s-0.357-0.133-0.406-0.149
		c-0.543-0.193-1.027-0.424-1.453-0.689c-0.708-0.437-1.439-1.032-2.195-1.788c-0.755-0.755-1.351-1.486-1.788-2.194
		c-0.266-0.426-0.495-0.91-0.688-1.452c-0.017-0.05-0.066-0.185-0.149-0.407c-0.083-0.221-0.14-0.375-0.17-0.46
		c-0.03-0.085-0.07-0.217-0.12-0.394c-0.05-0.177-0.084-0.336-0.104-0.477c-0.019-0.141-0.029-0.286-0.029-0.436
		c0-0.509,0.141-1.023,0.423-1.543c0.31-0.559,0.603-0.896,0.879-1.012c0.138-0.061,0.328-0.119,0.568-0.174
		s0.436-0.083,0.585-0.083c0.078,0,0.136,0.008,0.174,0.025c0.1,0.033,0.246,0.244,0.44,0.63c0.061,0.105,0.144,0.255,0.249,0.448
		c0.105,0.194,0.202,0.369,0.291,0.527s0.174,0.306,0.257,0.444c0.017,0.022,0.065,0.091,0.145,0.208
		c0.081,0.116,0.14,0.214,0.179,0.294c0.039,0.081,0.058,0.159,0.058,0.237c0,0.111-0.079,0.249-0.237,0.415
		c-0.157,0.166-0.329,0.318-0.514,0.457c-0.186,0.138-0.357,0.285-0.515,0.44s-0.236,0.282-0.236,0.382
		c0,0.049,0.014,0.112,0.042,0.187c0.027,0.075,0.051,0.131,0.07,0.17c0.02,0.039,0.058,0.105,0.116,0.199
		c0.058,0.094,0.09,0.146,0.096,0.158c0.42,0.758,0.901,1.407,1.444,1.95c0.542,0.542,1.192,1.023,1.95,1.443
		c0.01,0.006,0.062,0.037,0.156,0.096c0.096,0.058,0.162,0.097,0.199,0.116c0.039,0.02,0.096,0.043,0.172,0.07
		c0.074,0.027,0.137,0.042,0.186,0.042c0.1,0,0.227-0.079,0.383-0.237c0.154-0.157,0.301-0.329,0.439-0.514
		c0.137-0.186,0.289-0.357,0.455-0.515c0.166-0.158,0.305-0.236,0.416-0.236c0.076,0,0.156,0.02,0.236,0.058
		c0.08,0.039,0.178,0.099,0.295,0.179c0.115,0.08,0.186,0.128,0.207,0.145c0.139,0.083,0.285,0.169,0.443,0.258
		s0.334,0.186,0.527,0.29c0.193,0.105,0.344,0.188,0.447,0.249c0.389,0.194,0.598,0.341,0.631,0.44
		C28.182,24.679,28.189,24.737,28.189,24.814z"/>
</g>
<path fill="none" stroke="#FFFFFF" stroke-miterlimit="10" d="M22.349,11.273c-5.746,0-10.403,4.658-10.403,10.404
	c0,1.965,0.556,3.798,1.503,5.366l-1.412,5.265l5.421-1.452c1.458,0.778,3.122,1.223,4.89,1.223c5.745,0,10.402-4.658,10.402-10.401
	C32.751,15.931,28.094,11.273,22.349,11.273z"/>
</svg>
